<mxfile host="app.diagrams.net" modified="2020-11-22T04:15:58.445Z" agent="5.0 (Macintosh)" etag="cItUpkuB78l7NtsF2CMV" version="13.10.0" type="github">
  <diagram id="kgpKYQtTHZ0yAKxKKP6v" name="Page-1">
    <mxGraphModel dx="1358" dy="831" grid="1" gridSize="10" guides="1" tooltips="1" connect="1" arrows="1" fold="1" page="1" pageScale="1" pageWidth="850" pageHeight="1100" math="0" shadow="0">
      <root>
        <mxCell id="0" />
        <mxCell id="1" parent="0" />
        <mxCell id="e7bw-fOb7OrNFbLkdIwV-7" value="" style="edgeStyle=orthogonalEdgeStyle;rounded=0;orthogonalLoop=1;jettySize=auto;html=1;" edge="1" parent="1" source="e7bw-fOb7OrNFbLkdIwV-1" target="e7bw-fOb7OrNFbLkdIwV-3">
          <mxGeometry relative="1" as="geometry" />
        </mxCell>
        <mxCell id="e7bw-fOb7OrNFbLkdIwV-1" value="&lt;div&gt;&lt;u&gt;&lt;b&gt;Raw Data&lt;/b&gt;&lt;/u&gt;&lt;/div&gt;&lt;div&gt;&lt;u&gt;&lt;b&gt;&lt;br&gt;&lt;/b&gt;&lt;/u&gt;&lt;/div&gt;Using beautiful soup to web scrapping house transaction data " style="rounded=0;whiteSpace=wrap;html=1;fillColor=#ffe6cc;strokeColor=#d79b00;" vertex="1" parent="1">
          <mxGeometry x="70" y="260" width="190" height="100" as="geometry" />
        </mxCell>
        <mxCell id="e7bw-fOb7OrNFbLkdIwV-8" value="" style="edgeStyle=orthogonalEdgeStyle;rounded=0;orthogonalLoop=1;jettySize=auto;html=1;" edge="1" parent="1" source="e7bw-fOb7OrNFbLkdIwV-3" target="e7bw-fOb7OrNFbLkdIwV-4">
          <mxGeometry relative="1" as="geometry" />
        </mxCell>
        <mxCell id="e7bw-fOb7OrNFbLkdIwV-3" value="&lt;div&gt;&lt;u&gt;&lt;b&gt;Data Pre-processing&lt;br&gt;&lt;/b&gt;&lt;/u&gt;&lt;/div&gt;&lt;div&gt;&lt;u&gt;&lt;b&gt;&lt;br&gt;&lt;/b&gt;&lt;/u&gt;&lt;/div&gt;Applying pandas to clean and manipulate raw data" style="rounded=0;whiteSpace=wrap;html=1;fillColor=#d5e8d4;strokeColor=#82b366;" vertex="1" parent="1">
          <mxGeometry x="330" y="260" width="210" height="100" as="geometry" />
        </mxCell>
        <mxCell id="e7bw-fOb7OrNFbLkdIwV-9" value="" style="edgeStyle=orthogonalEdgeStyle;rounded=0;orthogonalLoop=1;jettySize=auto;html=1;" edge="1" parent="1" source="e7bw-fOb7OrNFbLkdIwV-4" target="e7bw-fOb7OrNFbLkdIwV-5">
          <mxGeometry relative="1" as="geometry" />
        </mxCell>
        <mxCell id="e7bw-fOb7OrNFbLkdIwV-4" value="&lt;div&gt;&lt;u&gt;&lt;b&gt;Machine Learning &amp;amp; Model Tuning&lt;br&gt;&lt;/b&gt;&lt;/u&gt;&lt;/div&gt;&lt;div&gt;&lt;u&gt;&lt;b&gt;&lt;br&gt;&lt;/b&gt;&lt;/u&gt;&lt;/div&gt;Using Sagemaker and built-in algorithm to fit regression model" style="rounded=0;whiteSpace=wrap;html=1;fillColor=#dae8fc;strokeColor=#6c8ebf;" vertex="1" parent="1">
          <mxGeometry x="330" y="420" width="210" height="100" as="geometry" />
        </mxCell>
        <mxCell id="e7bw-fOb7OrNFbLkdIwV-5" value="&lt;div&gt;&lt;u&gt;&lt;b&gt;Result Showcasing&lt;br&gt;&lt;/b&gt;&lt;/u&gt;&lt;/div&gt;&lt;div&gt;&lt;u&gt;&lt;b&gt;&lt;br&gt;&lt;/b&gt;&lt;/u&gt;&lt;/div&gt;Employing ipywidget to filter and visualize final output" style="rounded=0;whiteSpace=wrap;html=1;fillColor=#f8cecc;strokeColor=#b85450;" vertex="1" parent="1">
          <mxGeometry x="60" y="420" width="210" height="100" as="geometry" />
        </mxCell>
      </root>
    </mxGraphModel>
  </diagram>
</mxfile>
